<?xml version="1.0" encoding="UTF-8"?>
<svg width="1876" height="276" viewBox="0 0 1876 276" fill="none" xmlns="http://www.w3.org/2000/svg">
    <path d="M284.5 137.5C284.5 213.439 220.939 275 145 275C69.0608 275 5.5 213.439 5.5 137.5C5.5 61.5608 69.0608 0 145 0C220.939 0 284.5 61.5608 284.5 137.5Z" fill="black"/>
    <path d="M425.483 63.3426L466.783 63.3426L466.783 219.343H425.483V63.3426Z" fill="black"/>
    <path d="M425.483 0L466.783 0L466.783 41.3H425.483V0Z" fill="black"/>
    <path d="M631.783 219.343H590.483V63.3426H631.783V82.1426C640.583 68.1426 657.783 59.3426 679.783 59.3426C720.183 59.3426 744.983 91.3426 744.983 141.343C744.983 191.343 720.183 223.343 679.783 223.343C657.783 223.343 640.583 214.543 631.783 200.543V219.343ZM631.783 141.343C631.783 171.343 646.183 186.543 669.783 186.543C693.383 186.543 707.783 171.343 707.783 141.343C707.783 111.343 693.383 96.1426 669.783 96.1426C646.183 96.1426 631.783 111.343 631.783 141.343Z" fill="black"/>
    <path d="M859.183 223.343C813.983 223.343 782.983 191.343 782.983 141.343C782.983 91.3426 813.983 59.3426 859.183 59.3426C904.383 59.3426 935.383 91.3426 935.383 141.343C935.383 191.343 904.383 223.343 859.183 223.343ZM859.183 186.543C882.783 186.543 897.183 171.343 897.183 141.343C897.183 111.343 882.783 96.1426 859.183 96.1426C835.583 96.1426 821.183 111.343 821.183 141.343C821.183 171.343 835.583 186.543 859.183 186.543Z" fill="black"/>
    <path d="M1049.58 219.343H1008.28V63.3426H1049.58V82.1426C1058.38 68.1426 1075.58 59.3426 1097.58 59.3426C1137.98 59.3426 1162.78 91.3426 1162.78 141.343C1162.78 191.343 1137.98 223.343 1097.58 223.343C1075.58 223.343 1058.38 214.543 1049.58 200.543V219.343ZM1049.58 141.343C1049.58 171.343 1063.98 186.543 1087.58 186.543C1111.18 186.543 1125.58 171.343 1125.58 141.343C1125.58 111.343 1111.18 96.1426 1087.58 96.1426C1063.98 96.1426 1049.58 111.343 1049.58 141.343Z" fill="black"/>
    <path d="M1276.98 223.343C1231.78 223.343 1200.78 191.343 1200.78 141.343C1200.78 91.3426 1231.78 59.3426 1276.98 59.3426C1322.18 59.3426 1353.18 91.3426 1353.18 141.343C1353.18 191.343 1322.18 223.343 1276.98 223.343ZM1276.98 186.543C1300.58 186.543 1314.98 171.343 1314.98 141.343C1314.98 111.343 1300.58 96.1426 1276.98 96.1426C1253.38 96.1426 1238.98 111.343 1238.98 141.343C1238.98 171.343 1253.38 186.543 1276.98 186.543Z" fill="black"/>
    <path d="M1467.38 219.343H1426.08V63.3426H1467.38V82.1426C1476.18 68.1426 1493.38 59.3426 1515.38 59.3426C1555.78 59.3426 1580.58 91.3426 1580.58 141.343C1580.58 191.343 1555.78 223.343 1515.38 223.343C1493.38 223.343 1476.18 214.543 1467.38 200.543V219.343ZM1467.38 141.343C1467.38 171.343 1481.78 186.543 1505.38 186.543C1528.98 186.543 1543.38 171.343 1543.38 141.343C1543.38 111.343 1528.98 96.1426 1505.38 96.1426C1481.78 96.1426 1467.38 111.343 1467.38 141.343Z" fill="black"/>
    <path d="M1694.78 223.343C1649.58 223.343 1618.58 191.343 1618.58 141.343C1618.58 91.3426 1649.58 59.3426 1694.78 59.3426C1739.98 59.3426 1770.98 91.3426 1770.98 141.343C1770.98 191.343 1739.98 223.343 1694.78 223.343ZM1694.78 186.543C1718.38 186.543 1732.78 171.343 1732.78 141.343C1732.78 111.343 1718.38 96.1426 1694.78 96.1426C1671.18 96.1426 1656.78 111.343 1656.78 141.343C1656.78 171.343 1671.18 186.543 1694.78 186.543Z" fill="black"/>
</svg> 